Coordinates
version=1
nRows=4
nColumns=48
inDegrees=yes

Units are S.I. units (second, meters, Newtons, ...)
Angles are in degrees.

endheader
time	pelvis_tilt	pelvis_list	pelvis_rotation	pelvis_tx	pelvis_ty	pelvis_tz	hip_flexion_r	hip_adduction_r	hip_rotation_r	knee_angle_r	knee_adduction_r	knee_rotation_r	knee_anterior_posterior_r	knee_inferior_superior_r	knee_medial_lateral_r	ankle_angle_r	subtalar_angle_r	mtp_angle_r	hip_flexion_l	hip_adduction_l	hip_rotation_l	knee_angle_l	knee_adduction_l	knee_rotation_l	knee_anterior_posterior_l	knee_inferior_superior_l	knee_medial_lateral_l	ankle_angle_l	subtalar_angle_l	mtp_angle_l	lumbar_extension	lumbar_bending	lumbar_rotation	arm_flex_r	arm_add_r	arm_rot_r	elbow_flex_r	pro_sup_r	wrist_flex_r	wrist_dev_r	arm_flex_l	arm_add_l	arm_rot_l	elbow_flex_l	pro_sup_l	wrist_flex_l	wrist_dev_l
      0.00000000	     -4.49768994	      0.94855753	     -3.10818356	     -1.14847899	      1.00975433	      0.15370326	      9.69218681	     -3.47995451	     -5.17441219	    -12.59510850	      0.98440452	      4.11446608	      0.00236794	     -0.40000000	      0.00000000	     -8.59530425	      0.00000000	      0.00000000	      8.88837090	      0.07633221	    -13.67386757	    -13.75616155	      0.98440452	      4.11446608	      0.00000000	     -0.40000000	      0.00000000	     -8.80729447	      0.00000000	      0.00000000	    -11.52838709	     -1.53940790	      1.64880603	     -2.72372002	    -17.76739106	     19.52611358	     39.17005014	     79.49349122	      0.00000000	      0.00000000	     -7.66716210	    -19.83616034	     19.02234692	     49.66768013	     84.08933977	      0.00000000	      0.00000000
      0.01000000	     -4.55367487	      1.06867279	     -3.13300953	     -1.14816751	      1.00963350	      0.15330092	      9.79137726	     -3.63241375	     -5.20414566	    -12.62846587	      0.98440452	      4.11446608	      0.00208036	     -0.40000000	      0.00000000	     -8.60447999	      0.00000000	      0.00000000	      8.84020123	      0.23678034	    -13.73668426	    -13.58801586	      0.98440452	      4.11446608	      0.00000000	     -0.40000000	      0.00000000	     -8.87397255	      0.00000000	      0.00000000	    -11.42223565	     -1.70441821	      1.73536202	     -2.87567472	    -17.75485328	     19.46642459	     39.26004319	     79.34488320	      0.00000000	      0.00000000	     -7.44803390	    -19.87887746	     19.44757102	     49.44213087	     83.91352528	      0.00000000	      0.00000000
      0.02000000	     -4.61645502	      1.03806287	     -3.07931187	     -1.14785786	      1.00947248	      0.15302059	      9.80070132	     -3.60111231	     -5.22781744	    -12.63451405	      0.98440452	      4.11446608	      0.00250754	     -0.40000000	      0.00000000	     -8.58426137	      0.00000000	      0.00000000	      8.84177560	      0.20917500	    -13.83423971	    -13.48593967	      0.98440452	      4.11446608	      0.00000000	     -0.40000000	      0.00000000	     -8.80599009	      0.00000000	      0.00000000	    -11.33664171	     -1.70282758	      1.65799192	     -2.93495021	    -17.70541050	     19.43932340	     39.30550702	     79.17095471	      0.00000000	      0.00000000	     -7.41475466	    -19.86528549	     19.45284315	     49.37729072	     83.68662218	      0.00000000	      0.00000000
      0.03000000	     -4.68744691	      1.04288707	     -3.12831962	     -1.14738696	      1.00934020	      0.15266578	      9.85869544	     -3.62871293	     -5.32286365	    -12.65109574	      0.98440452	      4.11446608	      0.00262797	     -0.40000000	      0.00000000	     -8.53480025	      0.00000000	      0.00000000	      8.79712438	      0.23322501	    -13.93893418	    -13.29515632	      0.98440452	      4.11446608	      0.00000000	     -0.40000000	      0.00000000	     -8.72616230	      0.00000000	      0.00000000	    -11.22268415	     -1.72194716	      1.61393011	     -2.96427625	    -17.64304598	     19.41657450	     39.30968913	     79.00581950	      0.00000000	      0.00000000	     -7.34066121	    -19.81469567	     19.61331848	     49.04250806	     83.55454463	      0.00000000	      0.00000000
